# Blender 5.1.2
# www.blender.org
mtllib aldeano.mtl
o Cube
v 0.432607 4.287176 -0.192637
v 0.432607 4.287176 0.429076
v 0.582135 4.669499 -0.238109
v 0.582134 4.669499 0.494054
v 0.432607 3.903493 0.303569
v 0.432607 3.903493 -0.180762
v 0.484620 3.709640 -0.218381
v 0.484620 3.709640 0.282507
v 0.081269 2.988949 -0.096094
v 0.019678 3.013451 0.259696
v 0.567283 3.013451 0.247138
v 0.567283 3.013451 -0.047633
v 0.556345 2.366225 0.001549
v 0.556345 2.366225 0.225054
v 0.108058 2.344043 0.264038
v 0.108058 2.366225 -0.067171
v 0.136228 2.046438 0.013944
v 0.136227 2.046438 0.221027
v 0.540574 2.046438 0.215220
v 0.540574 2.046438 0.023055
v 0.540574 1.802931 -0.005075
v 0.540574 1.802931 0.237131
v 0.136227 1.802931 0.244640
v 0.136228 1.802931 -0.016370
v 0.103451 1.448187 -0.045515
v 0.103451 1.448187 0.244640
v 0.580030 1.448187 0.237131
v 0.580030 1.448187 -0.032120
v 0.472047 0.679208 0.019018
v 0.472047 0.679208 0.297163
v 0.293801 0.679208 0.297163
v 0.293801 0.679208 0.019018
v 0.196997 0.467871 -0.044054
v 0.244215 0.463616 0.742740
v 0.521633 0.463616 0.742740
v 0.568852 0.467871 -0.044054
v 0.545686 0.348815 -0.058103
v 0.540978 0.353069 0.830330
v 0.224859 0.353069 0.830330
v 0.220151 0.348815 -0.058103
v 0.582134 5.238315 0.291308
v 0.582135 5.238315 -0.175892
v 0.844665 5.257223 -0.094784
v 0.844664 5.257223 0.191635
v 0.712617 4.831154 0.332160
v 0.710591 4.829472 -0.184299
v 0.961538 4.768944 -0.065509
v 0.960258 4.770338 0.163169
v 1.039280 5.158588 0.163726
v 1.040188 5.160119 -0.065875
v 1.353413 5.167687 -0.078318
v 1.353412 5.167687 0.175168
v 1.353412 4.756553 0.175168
v 1.353413 4.756553 -0.078318
v 1.537539 4.810714 -0.048677
v 1.537538 4.810714 0.148821
v 1.537538 5.113526 0.148821
v 1.537539 5.113526 -0.048677
v 1.779204 5.154220 -0.061851
v 1.779203 5.154220 0.175168
v 1.779203 4.770020 0.175168
v 1.779204 4.770020 -0.061851
v 2.312555 4.797637 -0.045487
v 2.312555 4.797637 0.165379
v 2.312555 5.126603 0.165379
v 2.312555 5.126603 -0.045487
v 2.319192 5.095401 -0.019447
v 2.319278 5.095636 0.143727
v 2.319278 4.857323 0.143727
v 2.319192 4.857558 -0.019447
v 2.583453 4.683329 -0.021697
v 2.583452 4.683329 0.145841
v 2.661190 5.127852 0.145841
v 2.661190 5.127852 -0.021697
v 0.211153 5.343327 -0.121107
v 0.191146 5.343327 0.195953
v 0.230103 5.527132 0.174256
v 0.191089 5.582863 -0.174503
v 0.285146 5.766170 -0.288010
v 0.265828 5.547925 0.322782
v 0.275641 6.121322 0.323854
v 0.293056 6.121322 -0.280159
v 0.196307 6.313553 -0.177565
v 0.196307 6.313553 0.228275
v 0.131014 6.420965 0.141833
v 0.131015 6.420965 -0.016075
v 0.524927 4.254255 0.088858
v 0.162532 4.267905 -0.268587
v 0.677182 4.594375 0.102141
v 0.310859 4.647432 -0.349442
v 0.501523 4.479838 0.437112
v 0.159595 3.914401 -0.258307
v 0.509317 3.914388 0.026982
v 0.244406 3.483276 0.405805
v 0.566673 3.729250 -0.013784
v 0.309386 3.483707 -0.376504
v 0.560915 3.365031 -0.252543
v 0.337559 2.995338 -0.264462
v 0.316718 3.009971 0.428186
v 0.337754 2.345846 0.373046
v 0.356115 2.339269 -0.163242
v 0.372255 2.042014 -0.079446
v 0.353638 2.045088 0.326270
v 0.351536 1.804116 0.353771
v 0.368732 1.809930 -0.115763
v 0.369036 1.444239 -0.176099
v 0.351856 1.443020 0.369662
v 0.517435 0.694795 0.150243
v 0.247873 0.693604 0.150330
v 0.141836 0.470385 0.275223
v 0.624012 0.470385 0.275223
v 0.623576 0.348996 0.327376
v 0.142261 0.348815 0.327376
v 0.288066 5.276116 -0.290129
v 0.612669 4.978676 -0.274845
v 0.619257 4.976464 0.475945
v 0.609048 5.322691 0.040409
v 0.743620 4.976363 0.408229
v 0.863811 4.970485 -0.224965
v 0.973112 4.967234 -0.176134
v 0.974482 4.968447 0.266084
v 1.369232 4.964036 0.291714
v 1.369528 4.964036 -0.202401
v 1.544898 4.964036 -0.144019
v 1.541793 4.964036 0.238793
v 1.778685 4.964036 0.290169
v 1.782482 4.964036 -0.174847
v 2.316813 4.964036 -0.142404
v 2.316201 4.964036 0.268072
v 2.318577 4.962688 0.233149
v 2.318727 4.962688 -0.100531
v 2.692639 4.962688 -0.097515
v 2.692638 4.962688 0.229856
v 0.296599 5.353906 0.063503
v 0.250915 5.564929 0.060630
v 0.345362 5.662368 0.056955
v 0.371465 6.127777 0.056955
v 0.258457 6.308825 0.056955
v 0.134466 6.431029 0.056955
v 0.282606 3.698593 -0.336789
v 0.349575 3.239803 -0.352424
v 0.304338 4.990966 -0.385943
v 0.360315 0.672039 0.393839
v 0.574006 0.671177 0.256421
v 0.574006 0.671177 -0.012613
v 0.382736 0.672779 -0.141931
v 0.129284 0.671177 -0.024493
v 0.129284 0.671177 0.265428
v -0.432607 4.287176 -0.192637
v -0.432607 4.287176 0.429076
v 0.000000 4.287176 0.524409
v 0.000000 4.287176 -0.270604
v -0.582135 4.669499 -0.238109
v -0.582134 4.669499 0.494054
v 0.000000 4.669499 0.588804
v 0.000000 4.669499 -0.369013
v 0.000000 3.903493 -0.258219
v 0.000000 3.903493 0.483309
v -0.432607 3.903493 0.303569
v -0.432607 3.903493 -0.180762
v -0.484620 3.709640 -0.218381
v -0.484620 3.709640 0.282507
v 0.000000 3.243744 -0.380502
v -0.081269 2.988949 -0.096094
v -0.019678 3.013451 0.259696
v -0.567283 3.013451 0.247138
v -0.567283 3.013451 -0.047633
v -0.556345 2.366225 0.001549
v -0.556345 2.366225 0.225054
v -0.108058 2.344043 0.264038
v -0.108058 2.366225 -0.067171
v -0.136228 2.046438 0.013944
v -0.136227 2.046438 0.221027
v -0.540574 2.046438 0.215220
v -0.540574 2.046438 0.023055
v -0.540574 1.802931 -0.005075
v -0.540574 1.802931 0.237131
v -0.136227 1.802931 0.244640
v -0.136228 1.802931 -0.016370
v -0.103451 1.448187 -0.045515
v -0.103451 1.448187 0.244640
v -0.580030 1.448187 0.237131
v -0.580030 1.448187 -0.032120
v -0.472047 0.679208 0.019018
v -0.472047 0.679208 0.297163
v -0.293801 0.679208 0.297163
v -0.293801 0.679208 0.019018
v -0.196997 0.467871 -0.044054
v -0.244215 0.463616 0.742740
v -0.521633 0.463616 0.742740
v -0.568852 0.467871 -0.044054
v -0.545686 0.348815 -0.058103
v -0.540978 0.353069 0.830330
v -0.224859 0.353069 0.830330
v -0.220151 0.348815 -0.058103
v 0.000000 5.238315 -0.357950
v 0.000000 5.238315 0.406461
v -0.582134 5.238315 0.291308
v -0.582135 5.238315 -0.175892
v -0.844665 5.257223 -0.094784
v -0.844664 5.257223 0.191635
v -0.712617 4.831154 0.332160
v -0.710591 4.829472 -0.184299
v -0.961538 4.768944 -0.065509
v -0.960258 4.770338 0.163169
v -1.039280 5.158588 0.163726
v -1.040188 5.160119 -0.065875
v -1.353413 5.167687 -0.078318
v -1.353412 5.167687 0.175168
v -1.353412 4.756553 0.175168
v -1.353413 4.756553 -0.078318
v -1.537539 4.810714 -0.048677
v -1.537538 4.810714 0.148821
v -1.537538 5.113526 0.148821
v -1.537539 5.113526 -0.048677
v -1.779204 5.154220 -0.061851
v -1.779203 5.154220 0.175168
v -1.779203 4.770020 0.175168
v -1.779204 4.770020 -0.061851
v -2.312555 4.797637 -0.045487
v -2.312555 4.797637 0.165379
v -2.312555 5.126603 0.165379
v -2.312555 5.126603 -0.045487
v -2.319192 5.095401 -0.019447
v -2.319278 5.095636 0.143727
v -2.319278 4.857323 0.143727
v -2.319192 4.857558 -0.019447
v -2.583453 4.683329 -0.021697
v -2.583452 4.683329 0.145841
v -2.661190 5.127852 0.145841
v -2.661190 5.127852 -0.021697
v -0.211153 5.343327 -0.121107
v -0.191146 5.343327 0.195953
v 0.000000 5.343327 0.281113
v 0.000000 5.343327 -0.215135
v 0.000000 5.582863 -0.203506
v 0.000000 5.490992 0.271403
v -0.230103 5.527132 0.174256
v -0.191089 5.582863 -0.174503
v -0.285146 5.766170 -0.288010
v -0.265828 5.547925 0.322782
v 0.000000 5.491737 0.415307
v 0.000000 5.751751 -0.401703
v 0.000000 6.121322 -0.399619
v 0.000000 6.121322 0.425283
v -0.275641 6.121322 0.323854
v -0.293056 6.121322 -0.280159
v -0.196307 6.313553 -0.177565
v -0.196307 6.313553 0.228275
v 0.000000 6.313553 0.337258
v 0.000000 6.313553 -0.297026
v 0.000000 6.435037 -0.104662
v 0.000000 6.435421 0.197981
v -0.131014 6.420965 0.141833
v -0.131015 6.420965 -0.016075
v -0.524927 4.254255 0.088858
v -0.162532 4.267905 -0.268587
v -0.677182 4.594375 0.102141
v -0.310859 4.647432 -0.349442
v -0.501523 4.479838 0.437112
v 0.000000 4.478512 0.540688
v -0.159595 3.914401 -0.258307
v -0.509317 3.914388 0.026982
v 0.000000 3.573690 0.449515
v -0.244406 3.483276 0.405805
v -0.566673 3.729250 -0.013784
v -0.309386 3.483707 -0.376504
v 0.000000 3.572229 -0.356730
v -0.560915 3.365031 -0.252543
v -0.337559 2.995338 -0.264462
v -0.316718 3.009971 0.428186
v -0.337754 2.345846 0.373046
v -0.356115 2.339269 -0.163242
v -0.372255 2.042014 -0.079446
v -0.353638 2.045088 0.326270
v -0.351536 1.804116 0.353771
v -0.368732 1.809930 -0.115763
v -0.369036 1.444239 -0.176099
v -0.351856 1.443020 0.369662
v -0.517435 0.694795 0.150243
v -0.247873 0.693604 0.150330
v -0.141836 0.470385 0.275223
v -0.624012 0.470385 0.275223
v -0.623576 0.348996 0.327376
v -0.142261 0.348815 0.327376
v 0.000000 4.963799 -0.391975
v -0.288066 5.276116 -0.290129
v -0.612669 4.978676 -0.274845
v 0.000000 4.966657 0.575111
v -0.619257 4.976464 0.475945
v -0.609048 5.322691 0.040409
v -0.743620 4.976363 0.408229
v -0.863811 4.970485 -0.224965
v -0.973112 4.967234 -0.176134
v -0.974482 4.968447 0.266084
v -1.369232 4.964036 0.291714
v -1.369528 4.964036 -0.202401
v -1.544898 4.964036 -0.144019
v -1.541793 4.964036 0.238793
v -1.778685 4.964036 0.290169
v -1.782482 4.964036 -0.174847
v -2.316813 4.964036 -0.142404
v -2.316201 4.964036 0.268072
v -2.318577 4.962688 0.233149
v -2.318727 4.962688 -0.100531
v -2.692639 4.962688 -0.097515
v -2.692638 4.962688 0.229856
v -0.296599 5.353906 0.063503
v -0.250915 5.564929 0.060630
v -0.345362 5.662368 0.056955
v -0.371465 6.127777 0.056955
v -0.258457 6.308825 0.056955
v 0.000000 6.452951 0.056955
v -0.134466 6.431029 0.056955
v -0.282606 3.698593 -0.336789
v -0.349575 3.239803 -0.352424
v -0.304338 4.990966 -0.385943
v 0.000000 3.009971 0.472273
v 0.000000 2.995338 -0.380614
v -0.360315 0.672039 0.393839
v -0.574006 0.671177 0.256421
v -0.574006 0.671177 -0.012613
v -0.382736 0.672779 -0.141931
v -0.129284 0.671177 -0.024493
v -0.129284 0.671177 0.265428
vn 0.6593 -0.2080 -0.7226
vn 0.6270 -0.2108 0.7500
vn 0.6248 -0.3195 -0.7124
vn 0.5685 -0.2619 0.7799
vn 0.7293 -0.0190 0.6839
vn 0.6814 0.2077 -0.7018
vn 0.6939 0.2912 -0.6585
vn 0.8005 0.0995 0.5911
vn -0.4768 -0.8301 -0.2891
vn -0.4497 -0.8612 0.2370
vn 0.8660 0.0132 0.4998
vn 0.9426 -0.0899 -0.3217
vn 0.9032 -0.0770 -0.4222
vn 0.8833 -0.0519 0.4659
vn -0.8441 -0.1240 0.5216
vn -0.8097 -0.1598 -0.5647
vn -0.8550 -0.0708 -0.5137
vn -0.8614 -0.0498 0.5054
vn 0.8807 -0.0131 0.4734
vn 0.8940 -0.0237 -0.4474
vn 0.8681 0.1028 -0.4857
vn 0.8578 0.0706 0.5091
vn -0.8372 0.0681 0.5427
vn -0.8251 0.1085 -0.5545
vn -0.8414 0.0428 -0.5387
vn -0.8609 0.0332 0.5076
vn 0.8756 0.0501 0.4804
vn 0.8790 0.0579 -0.4734
vn 0.3723 -0.7908 -0.4858
vn 0.7243 -0.6625 0.1909
vn -0.8166 -0.4424 0.3707
vn -0.3435 -0.7812 -0.5214
vn -0.6735 0.1873 -0.7151
vn -0.5385 0.6563 0.5285
vn 0.5385 0.6563 0.5285
vn 0.6735 0.1873 -0.7151
vn 0.4618 -0.5807 -0.6704
vn 0.5300 -0.3813 0.7574
vn -0.5299 -0.3814 0.7575
vn -0.4618 -0.5807 -0.6705
vn 0.1822 0.7653 0.6174
vn 0.2279 0.7128 -0.6633
vn 0.3267 0.8014 -0.5010
vn 0.3581 0.8170 0.4520
vn 0.6873 -0.4942 0.5323
vn 0.4872 -0.5551 -0.6742
vn -0.0464 -0.9046 -0.4237
vn -0.0235 -0.9091 0.4158
vn 0.2318 0.8221 0.5200
vn 0.2082 0.8285 -0.5199
vn 0.1268 0.8650 -0.4855
vn 0.1238 0.8593 0.4962
vn 0.1210 -0.8567 0.5015
vn 0.1245 -0.8626 -0.4903
vn 0.0876 -0.8662 -0.4920
vn 0.0638 -0.8654 0.4970
vn 0.0637 0.8680 0.4925
vn 0.0873 0.8688 -0.4874
vn -0.0517 0.8718 -0.4872
vn -0.0707 0.8697 0.4886
vn -0.0709 -0.8674 0.4926
vn -0.0517 -0.8695 -0.4912
vn 0.6030 -0.6949 -0.3918
vn 0.6006 -0.6982 0.3896
vn 0.5854 0.7099 0.3916
vn 0.5902 0.7050 -0.3931
vn 0.7573 0.5704 -0.3180
vn 0.7468 0.5840 0.3182
vn 0.6751 -0.5697 0.4687
vn 0.6884 -0.5513 -0.4714
vn 0.2466 -0.8598 -0.4472
vn 0.2474 -0.8660 0.4346
vn 0.5033 0.7674 0.3972
vn 0.5008 0.7603 -0.4138
vn 0.5008 0.6720 -0.5455
vn 0.4225 0.5803 0.6962
vn 0.7770 -0.5332 0.3346
vn 0.6125 -0.4283 -0.6644
vn 0.7010 -0.3155 -0.6396
vn 0.6538 -0.5499 0.5197
vn 0.7001 0.2345 0.6744
vn 0.7430 0.2578 -0.6177
vn 0.5853 0.6675 -0.4602
vn 0.5968 0.6066 0.5251
vn 0.4503 0.8340 0.3187
vn 0.4502 0.8632 -0.2287
vn 0.9739 -0.2267 -0.0119
vn 0.1445 -0.1384 -0.9798
vn 0.9328 -0.3604 -0.0027
vn 0.2094 -0.1880 -0.9596
vn 0.6170 -0.3521 0.7038
vn 0.1214 0.1527 -0.9808
vn 0.9917 0.1233 -0.0374
vn 0.3427 0.0414 0.9385
vn 0.9768 0.2018 -0.0717
vn 0.2426 0.1051 -0.9644
vn 0.8293 -0.0273 -0.5581
vn 0.2921 -0.3583 -0.8867
vn 0.2154 -0.1177 0.9694
vn 0.0605 -0.1031 0.9928
vn 0.1199 -0.1753 -0.9772
vn 0.1228 -0.0451 -0.9914
vn 0.0648 -0.0169 0.9978
vn 0.0368 0.0760 0.9964
vn 0.0783 0.1425 -0.9867
vn 0.0712 0.0525 -0.9961
vn 0.0314 0.0363 0.9988
vn 0.6929 -0.7131 -0.1067
vn -0.7294 -0.6813 -0.0619
vn -0.9663 0.2574 0.0076
vn 0.9663 0.2573 0.0075
vn 0.7651 -0.6427 0.0398
vn -0.7648 -0.6430 0.0398
vn 0.2163 0.6812 -0.6994
vn 0.3319 0.0789 -0.9400
vn 0.4054 0.2518 0.8788
vn 0.1445 0.9894 -0.0129
vn 0.5367 0.1066 0.8370
vn 0.2984 -0.0491 -0.9532
vn 0.1816 -0.0396 -0.9826
vn 0.2561 -0.0235 0.9664
vn 0.1226 0.0054 0.9924
vn 0.1334 0.0053 -0.9910
vn 0.0942 0.0053 -0.9955
vn 0.0469 0.0052 0.9989
vn -0.0793 0.0046 0.9968
vn -0.0382 0.0047 -0.9993
vn 0.6119 0.0065 -0.7909
vn 0.5951 0.0082 0.8036
vn 0.7936 0.0364 0.6074
vn 0.7913 0.0341 -0.6104
vn 0.6828 -0.0134 -0.7305
vn 0.6764 -0.0087 0.7365
vn 0.6294 0.7744 0.0642
vn 0.9244 -0.3675 -0.1019
vn 0.9385 -0.3427 -0.0410
vn 0.9680 0.2462 0.0490
vn 0.7980 0.6016 0.0348
vn 0.4639 0.8858 0.0106
vn 0.2208 0.2887 -0.9316
vn 0.3669 -0.1398 -0.9197
vn 0.2178 0.0981 -0.9710
vn 0.0395 -0.6256 0.7791
vn 0.6081 -0.6885 0.3951
vn 0.6771 -0.6561 -0.3333
vn 0.0664 -0.6415 -0.7642
vn -0.6453 -0.6465 -0.4070
vn -0.6504 -0.6436 0.4035
vn -0.6593 -0.2080 -0.7226
vn -0.6270 -0.2108 0.7500
vn -0.0000 -0.1555 0.9878
vn -0.0000 -0.1404 -0.9901
vn -0.6248 -0.3195 -0.7124
vn -0.5685 -0.2619 0.7799
vn -0.0000 -0.1288 0.9917
vn -0.0000 -0.1598 -0.9872
vn -0.0000 0.1423 -0.9898
vn -0.0000 -0.1058 0.9944
vn -0.7293 -0.0190 0.6839
vn -0.6814 0.2077 -0.7018
vn -0.6939 0.2912 -0.6585
vn -0.8005 0.0995 0.5911
vn -0.0000 -0.0889 -0.9960
vn 0.4768 -0.8301 -0.2891
vn 0.4497 -0.8612 0.2370
vn -0.8660 0.0132 0.4998
vn -0.9426 -0.0899 -0.3217
vn -0.9032 -0.0770 -0.4222
vn -0.8833 -0.0519 0.4659
vn 0.8441 -0.1240 0.5216
vn 0.8097 -0.1598 -0.5647
vn 0.8550 -0.0708 -0.5137
vn 0.8614 -0.0498 0.5054
vn -0.8807 -0.0131 0.4734
vn -0.8940 -0.0237 -0.4474
vn -0.8681 0.1028 -0.4857
vn -0.8578 0.0706 0.5091
vn 0.8372 0.0681 0.5427
vn 0.8251 0.1085 -0.5545
vn 0.8414 0.0428 -0.5387
vn 0.8609 0.0332 0.5076
vn -0.8756 0.0501 0.4804
vn -0.8790 0.0579 -0.4734
vn -0.3723 -0.7908 -0.4858
vn -0.7243 -0.6625 0.1909
vn 0.8166 -0.4424 0.3707
vn 0.3435 -0.7812 -0.5214
vn -0.4618 -0.5807 -0.6704
vn -0.5300 -0.3813 0.7574
vn 0.5299 -0.3814 0.7575
vn 0.4618 -0.5807 -0.6705
vn -0.0000 0.5090 -0.8608
vn -0.0000 0.7008 0.7133
vn -0.1822 0.7653 0.6174
vn -0.2279 0.7128 -0.6633
vn -0.3267 0.8014 -0.5010
vn -0.3581 0.8170 0.4520
vn -0.6873 -0.4942 0.5323
vn -0.4872 -0.5551 -0.6742
vn 0.0464 -0.9046 -0.4237
vn 0.0235 -0.9091 0.4158
vn -0.2318 0.8221 0.5200
vn -0.2082 0.8285 -0.5199
vn -0.1268 0.8650 -0.4855
vn -0.1238 0.8593 0.4962
vn -0.1210 -0.8567 0.5015
vn -0.1245 -0.8626 -0.4903
vn -0.0876 -0.8662 -0.4920
vn -0.0638 -0.8654 0.4970
vn -0.0637 0.8680 0.4925
vn -0.0873 0.8688 -0.4874
vn 0.0517 0.8718 -0.4872
vn 0.0707 0.8697 0.4886
vn 0.0709 -0.8674 0.4926
vn 0.0517 -0.8695 -0.4912
vn -0.6030 -0.6949 -0.3918
vn -0.6006 -0.6982 0.3896
vn -0.5854 0.7099 0.3916
vn -0.5902 0.7050 -0.3931
vn -0.7573 0.5704 -0.3180
vn -0.7468 0.5840 0.3182
vn -0.6751 -0.5697 0.4687
vn -0.6884 -0.5513 -0.4714
vn -0.2466 -0.8598 -0.4472
vn -0.2474 -0.8660 0.4346
vn -0.5033 0.7674 0.3972
vn -0.5008 0.7603 -0.4138
vn -0.5008 0.6720 -0.5455
vn -0.4225 0.5803 0.6962
vn -0.0000 0.5553 0.8317
vn -0.0000 0.5394 -0.8420
vn -0.0000 -0.4242 -0.9056
vn -0.0000 -0.7385 0.6742
vn -0.7770 -0.5332 0.3346
vn -0.6125 -0.4283 -0.6644
vn -0.7010 -0.3155 -0.6396
vn -0.6538 -0.5499 0.5197
vn -0.0000 -0.6724 0.7402
vn -0.0000 -0.3535 -0.9354
vn -0.0000 0.2734 -0.9619
vn -0.0000 0.2367 0.9716
vn -0.7001 0.2345 0.6744
vn -0.7430 0.2578 -0.6177
vn -0.5853 0.6675 -0.4602
vn -0.5968 0.6066 0.5251
vn -0.0000 0.6073 0.7945
vn -0.0000 0.6896 -0.7242
vn -0.0000 0.9270 -0.3751
vn -0.0000 0.8882 0.4595
vn -0.4503 0.8340 0.3187
vn -0.4502 0.8632 -0.2287
vn -0.9739 -0.2267 -0.0119
vn -0.1445 -0.1384 -0.9798
vn -0.9328 -0.3604 -0.0027
vn -0.2094 -0.1880 -0.9596
vn -0.6170 -0.3521 0.7038
vn -0.0000 -0.2040 0.9790
vn -0.1214 0.1527 -0.9808
vn -0.9917 0.1233 -0.0374
vn -0.0000 0.0268 0.9996
vn -0.3427 0.0414 0.9385
vn -0.9768 0.2018 -0.0717
vn -0.2426 0.1051 -0.9644
vn -0.0000 0.1508 -0.9886
vn -0.8293 -0.0273 -0.5581
vn -0.2921 -0.3583 -0.8867
vn -0.2154 -0.1177 0.9694
vn -0.0605 -0.1031 0.9928
vn -0.1199 -0.1753 -0.9772
vn -0.1228 -0.0451 -0.9914
vn -0.0648 -0.0169 0.9978
vn -0.0368 0.0760 0.9964
vn -0.0783 0.1425 -0.9867
vn -0.0712 0.0525 -0.9961
vn -0.0314 0.0363 0.9988
vn -0.6929 -0.7131 -0.1067
vn 0.7294 -0.6813 -0.0619
vn 0.9663 0.2574 0.0076
vn -0.9663 0.2573 0.0075
vn -0.7651 -0.6427 0.0398
vn 0.7648 -0.6430 0.0398
vn -0.0000 0.0595 -0.9982
vn -0.2163 0.6812 -0.6994
vn -0.3319 0.0789 -0.9400
vn -0.0000 0.3025 0.9531
vn -0.4054 0.2518 0.8788
vn -0.1445 0.9894 -0.0129
vn -0.5367 0.1066 0.8370
vn -0.2984 -0.0491 -0.9532
vn -0.1816 -0.0396 -0.9826
vn -0.2561 -0.0235 0.9664
vn -0.1226 0.0054 0.9924
vn -0.1334 0.0053 -0.9910
vn -0.0942 0.0053 -0.9955
vn -0.0469 0.0052 0.9989
vn 0.0793 0.0046 0.9968
vn 0.0382 0.0047 -0.9993
vn -0.6119 0.0065 -0.7909
vn -0.5951 0.0082 0.8036
vn -0.7936 0.0364 0.6074
vn -0.7913 0.0341 -0.6104
vn -0.6828 -0.0134 -0.7305
vn -0.6764 -0.0087 0.7365
vn -0.6294 0.7744 0.0642
vn -0.9244 -0.3675 -0.1019
vn -0.9385 -0.3427 -0.0410
vn -0.9680 0.2462 0.0490
vn -0.7980 0.6016 0.0348
vn -0.0000 1.0000 0.0014
vn -0.4639 0.8858 0.0106
vn -0.2208 0.2887 -0.9316
vn -0.3669 -0.1398 -0.9197
vn -0.2178 0.0981 -0.9710
vn -0.0000 -0.6643 0.7475
vn -0.0000 -0.7048 -0.7094
vn -0.0395 -0.6256 0.7791
vn -0.6081 -0.6885 0.3951
vn -0.6771 -0.6561 -0.3333
vn -0.0664 -0.6415 -0.7642
vn 0.6453 -0.6465 -0.4070
vn 0.6504 -0.6436 0.4035
s 1
usemtl Material
f 1//1 3//3 89//89 87//87
f 87//87 89//89 4//4 91//91
f 87//87 91//91 2//2
f 2//2 91//91 261//257 151//151
f 3//3 1//1 88//88 90//90
f 90//90 88//88 152//152 156//156
f 88//88 1//1 6//6 92//92
f 152//152 88//88 92//92 157//157
f 87//87 2//2 5//5 93//93
f 1//1 87//87 93//93 6//6
f 2//2 151//151 158//158 5//5
f 93//93 5//5 8//8 95//95
f 6//6 93//93 95//95 7//7
f 92//92 6//6 7//7 140//140
f 157//157 92//92 140//140 268//264
f 140//140 7//7 96//96
f 96//96 7//7 97//97 141//141
f 141//141 97//97 12//12 98//98
f 7//7 95//95 97//97
f 95//95 8//8 11//11 12//12
f 97//97 95//95 12//12
f 8//8 94//94 99//99 11//11
f 99//99 10//10 15//15 100//100
f 11//11 99//99 100//100 14//14
f 12//12 11//11 14//14 13//13
f 98//98 12//12 13//13 101//101
f 9//9 98//98 101//101 16//16
f 10//10 9//9 16//16 15//15
f 15//15 16//16 17//17 18//18
f 101//101 13//13 20//20 102//102
f 16//16 101//101 102//102 17//17
f 13//13 14//14 19//19 20//20
f 100//100 15//15 18//18 103//103
f 14//14 100//100 103//103 19//19
f 103//103 18//18 23//23 104//104
f 19//19 103//103 104//104 22//22
f 20//20 19//19 22//22 21//21
f 102//102 20//20 21//21 105//105
f 17//17 102//102 105//105 24//24
f 18//18 17//17 24//24 23//23
f 23//23 24//24 25//25 26//26
f 105//105 21//21 28//28 106//106
f 24//24 105//105 106//106 25//25
f 21//21 22//22 27//27 28//28
f 104//104 23//23 26//26 107//107
f 22//22 104//104 107//107 27//27
f 109//109 32//32 33//33 110//110
f 32//32 29//29 36//36 33//33
f 29//29 108//108 111//111 36//36
f 30//30 31//31 34//34 35//35
f 35//35 34//34 39//39 38//38
f 111//111 35//35 38//38 112//112
f 36//36 111//111 112//112 37//37
f 33//33 36//36 37//37 40//40
f 110//110 33//33 40//40 113//113
f 34//34 110//110 113//113 39//39
f 90//90 156//156 286//282 142//142
f 3//3 90//90 142//142 115//115
f 142//142 286//282 196//192 114//114
f 115//115 142//142 114//114 42//42
f 155//155 4//4 116//116 289//285
f 289//285 116//116 41//41 197//193
f 42//42 117//117 43//43
f 116//116 4//4 45//45 118//118
f 41//41 116//116 118//118
f 41//41 118//118 44//44
f 3//3 115//115 46//46
f 115//115 42//42 43//43 119//119
f 46//46 115//115 119//119
f 89//89 3//3 46//46
f 45//45 46//46 47//47 48//48
f 119//119 43//43 50//50 120//120
f 46//46 119//119 120//120 47//47
f 118//118 45//45 48//48 121//121
f 44//44 118//118 121//121 49//49
f 43//43 44//44 49//49 50//50
f 50//50 49//49 52//52 51//51
f 121//121 48//48 53//53 122//122
f 49//49 121//121 122//122 52//52
f 120//120 50//50 51//51 123//123
f 47//47 120//120 123//123 54//54
f 48//48 47//47 54//54 53//53
f 53//53 54//54 55//55 56//56
f 123//123 51//51 58//58 124//124
f 54//54 123//123 124//124 55//55
f 122//122 53//53 56//56 125//125
f 52//52 122//122 125//125 57//57
f 51//51 52//52 57//57 58//58
f 58//58 57//57 60//60 59//59
f 125//125 56//56 61//61 126//126
f 57//57 125//125 126//126 60//60
f 124//124 58//58 59//59 127//127
f 55//55 124//124 127//127 62//62
f 56//56 55//55 62//62 61//61
f 61//61 62//62 63//63 64//64
f 127//127 59//59 66//66 128//128
f 62//62 127//127 128//128 63//63
f 126//126 61//61 64//64 129//129
f 60//60 126//126 129//129 65//65
f 59//59 60//60 65//65 66//66
f 66//66 65//65 68//68 67//67
f 129//129 64//64 69//69 130//130
f 65//65 129//129 130//130 68//68
f 128//128 66//66 67//67 131//131
f 63//63 128//128 131//131 70//70
f 64//64 63//63 70//70 69//69
f 69//69 70//70 71//71 72//72
f 131//131 67//67 74//74 132//132
f 70//70 131//131 132//132 71//71
f 130//130 69//69 72//72 133//133
f 68//68 130//130 133//133 73//73
f 67//67 68//68 73//73 74//74
f 72//72 71//71 132//132 133//133
f 133//133 132//132 74//74 73//73
f 117//117 42//42 75//75 134//134
f 41//41 117//117 134//134 76//76
f 197//193 41//41 76//76 234//230
f 114//114 196//192 235//231
f 42//42 114//114 235//231 75//75
f 75//75 235//231 236//232 78//78
f 234//230 76//76 77//77 237//233
f 134//134 75//75 78//78 135//135
f 76//76 134//134 135//135 77//77
f 135//135 78//78 79//79 136//136
f 77//77 135//135 136//136 80//80
f 237//233 77//77 80//80 242//238
f 78//78 236//232 243//239 79//79
f 79//79 243//239 244//240 82//82
f 242//238 80//80 81//81 245//241
f 136//136 79//79 82//82 137//137
f 80//80 136//136 137//137 81//81
f 137//137 82//82 83//83 138//138
f 81//81 137//137 138//138 84//84
f 245//241 81//81 84//84 250//246
f 82//82 244//240 251//247 83//83
f 83//83 251//247 252//248 86//86
f 250//246 84//84 85//85 253//249
f 138//138 83//83 86//86 139//139
f 84//84 138//138 139//139 85//85
f 86//86 252//248 313//309 139//139
f 139//139 313//309 253//249 85//85
f 5//5 94//94 8//8
f 158//158 264//260 94//94 5//5
f 10//10 99//99 318//314
f 9//9 319//315 98//98
f 9//9 10//10 318//314 319//315
f 163//163 141//141 98//98 319//315
f 163//163 268//264 96//96 141//141
f 96//96 268//264 140//140
f 264//260 318//314 99//99 94//94
f 107//107 26//26 148//148 143//143
f 30//30 143//143 148//148 31//31
f 30//30 144//144 143//143
f 107//107 143//143 144//144 27//27
f 30//30 108//108 145//145 144//144
f 27//27 144//144 145//145 28//28
f 108//108 29//29 145//145
f 29//29 146//146 145//145
f 28//28 145//145 146//146 106//106
f 29//29 32//32 147//147 146//146
f 106//106 146//146 147//147 25//25
f 32//32 109//109 148//148 147//147
f 25//25 147//147 148//148 26//26
f 109//109 31//31 148//148
f 4//4 155//155 261//257 91//91
f 117//117 41//41 44//44
f 117//117 44//44 43//43
f 4//4 89//89 45//45
f 89//89 46//46 45//45
f 38//38 39//39 113//113 112//112
f 37//37 112//112 113//113 40//40
f 30//30 35//35 111//111 108//108
f 31//31 109//109 110//110 34//34
f 149//149 256//252 258//254 153//153
f 256//252 260//256 154//154 258//254
f 256//252 150//150 260//256
f 150//150 151//151 261//257 260//256
f 153//153 259//255 257//253 149//149
f 259//255 156//156 152//152 257//253
f 257//253 262//258 160//160 149//149
f 152//152 157//157 262//258 257//253
f 256//252 263//259 159//159 150//150
f 149//149 160//160 263//259 256//252
f 150//150 159//159 158//158 151//151
f 263//259 266//262 162//162 159//159
f 160//160 161//161 266//262 263//259
f 262//258 315//311 161//161 160//160
f 157//157 268//264 315//311 262//258
f 315//311 267//263 161//161
f 267//263 316//312 269//265 161//161
f 316//312 270//266 167//167 269//265
f 161//161 269//265 266//262
f 266//262 167//167 166//166 162//162
f 269//265 167//167 266//262
f 162//162 166//166 271//267 265//261
f 271//267 272//268 170//170 165//165
f 166//166 169//169 272//268 271//267
f 167//167 168//168 169//169 166//166
f 270//266 273//269 168//168 167//167
f 164//164 171//171 273//269 270//266
f 165//165 170//170 171//171 164//164
f 170//170 173//173 172//172 171//171
f 273//269 274//270 175//175 168//168
f 171//171 172//172 274//270 273//269
f 168//168 175//175 174//174 169//169
f 272//268 275//271 173//173 170//170
f 169//169 174//174 275//271 272//268
f 275//271 276//272 178//178 173//173
f 174//174 177//177 276//272 275//271
f 175//175 176//176 177//177 174//174
f 274//270 277//273 176//176 175//175
f 172//172 179//179 277//273 274//270
f 173//173 178//178 179//179 172//172
f 178//178 181//181 180//180 179//179
f 277//273 278//274 183//183 176//176
f 179//179 180//180 278//274 277//273
f 176//176 183//183 182//182 177//177
f 276//272 279//275 181//181 178//178
f 177//177 182//182 279//275 276//272
f 281//277 282//278 188//36 187//187
f 187//187 188//36 191//33 184//184
f 184//184 191//33 283//279 280//276
f 185//185 190//34 189//35 186//186
f 190//34 193//189 194//190 189//35
f 283//279 284//280 193//189 190//34
f 191//33 192//188 284//280 283//279
f 188//36 195//191 192//188 191//33
f 282//278 285//281 195//191 188//36
f 189//35 194//190 285//281 282//278
f 259//255 317//313 286//282 156//156
f 153//153 288//284 317//313 259//255
f 317//313 287//283 196//192 286//282
f 288//284 199//195 287//283 317//313
f 155//155 289//285 290//286 154//154
f 289//285 197//193 198//194 290//286
f 199//195 200//196 291//287
f 290//286 292//288 202//198 154//154
f 198//194 292//288 290//286
f 198//194 201//197 292//288
f 153//153 203//199 288//284
f 288//284 293//289 200//196 199//195
f 203//199 293//289 288//284
f 258//254 203//199 153//153
f 202//198 205//201 204//200 203//199
f 293//289 294//290 207//203 200//196
f 203//199 204//200 294//290 293//289
f 292//288 295//291 205//201 202//198
f 201//197 206//202 295//291 292//288
f 200//196 207//203 206//202 201//197
f 207//203 208//204 209//205 206//202
f 295//291 296//292 210//206 205//201
f 206//202 209//205 296//292 295//291
f 294//290 297//293 208//204 207//203
f 204//200 211//207 297//293 294//290
f 205//201 210//206 211//207 204//200
f 210//206 213//209 212//208 211//207
f 297//293 298//294 215//211 208//204
f 211//207 212//208 298//294 297//293
f 296//292 299//295 213//209 210//206
f 209//205 214//210 299//295 296//292
f 208//204 215//211 214//210 209//205
f 215//211 216//212 217//213 214//210
f 299//295 300//296 218//214 213//209
f 214//210 217//213 300//296 299//295
f 298//294 301//297 216//212 215//211
f 212//208 219//215 301//297 298//294
f 213//209 218//214 219//215 212//208
f 218//214 221//217 220//216 219//215
f 301//297 302//298 223//219 216//212
f 219//215 220//216 302//298 301//297
f 300//296 303//299 221//217 218//214
f 217//213 222//218 303//299 300//296
f 216//212 223//219 222//218 217//213
f 223//219 224//220 225//221 222//218
f 303//299 304//300 226//222 221//217
f 222//218 225//221 304//300 303//299
f 302//298 305//301 224//220 223//219
f 220//216 227//223 305//301 302//298
f 221//217 226//222 227//223 220//216
f 226//222 229//225 228//224 227//223
f 305//301 306//302 231//227 224//220
f 227//223 228//224 306//302 305//301
f 304//300 307//303 229//225 226//222
f 225//221 230//226 307//303 304//300
f 224//220 231//227 230//226 225//221
f 229//225 307//303 306//302 228//224
f 307//303 230//226 231//227 306//302
f 291//287 308//304 232//228 199//195
f 198//194 233//229 308//304 291//287
f 197//193 234//230 233//229 198//194
f 287//283 235//231 196//192
f 199//195 232//228 235//231 287//283
f 232//228 239//235 236//232 235//231
f 234//230 237//233 238//234 233//229
f 308//304 309//305 239//235 232//228
f 233//229 238//234 309//305 308//304
f 309//305 310//306 240//236 239//235
f 238//234 241//237 310//306 309//305
f 237//233 242//238 241//237 238//234
f 239//235 240//236 243//239 236//232
f 240//236 247//243 244//240 243//239
f 242//238 245//241 246//242 241//237
f 310//306 311//307 247//243 240//236
f 241//237 246//242 311//307 310//306
f 311//307 312//308 248//244 247//243
f 246//242 249//245 312//308 311//307
f 245//241 250//246 249//245 246//242
f 247//243 248//244 251//247 244//240
f 248//244 255//251 252//248 251//247
f 250//246 253//249 254//250 249//245
f 312//308 314//310 255//251 248//244
f 249//245 254//250 314//310 312//308
f 255//251 314//310 313//309 252//248
f 314//310 254//250 253//249 313//309
f 159//159 162//162 265//261
f 158//158 159//159 265//261 264//260
f 165//165 318//314 271//267
f 164//164 270//266 319//315
f 164//164 319//315 318//314 165//165
f 163//163 319//315 270//266 316//312
f 163//163 316//312 267//263 268//264
f 267//263 315//311 268//264
f 264//260 265//261 271//267 318//314
f 279//275 320//316 325//321 181//181
f 185//185 186//186 325//321 320//316
f 185//185 320//316 321//317
f 279//275 182//182 321//317 320//316
f 185//185 321//317 322//318 280//276
f 182//182 183//183 322//318 321//317
f 280//276 322//318 184//184
f 184//184 322//318 323//319
f 183//183 278//274 323//319 322//318
f 184//184 323//319 324//320 187//187
f 278//274 180//180 324//320 323//319
f 187//187 324//320 325//321 281//277
f 180//180 181//181 325//321 324//320
f 281//277 325//321 186//186
f 154//154 260//256 261//257 155//155
f 291//287 201//197 198//194
f 291//287 200//196 201//197
f 154//154 202//198 258//254
f 258//254 202//198 203//199
f 193//189 284//280 285//281 194//190
f 192//188 195//191 285//281 284//280
f 185//185 280//276 283//279 190//34
f 186//186 189//35 282//278 281//277
